HIERARCHY
ROOT root
{
	OFFSET 0.000000 0.000000 0.000000
	CHANNELS 6 Xposition Yposition Zposition Zrotation Yrotation Xrotation
	JOINT lhip
	{
		OFFSET 0.058581 -0.082280 -0.017664
		CHANNELS 3 Zrotation Yrotation Xrotation
		JOINT lknee
		{
			OFFSET 0.043451 -0.386469 0.008037
			CHANNELS 3 Zrotation Yrotation Xrotation
			JOINT lankle
			{
				OFFSET -0.014790 -0.426874 -0.037428
				CHANNELS 3 Zrotation Yrotation Xrotation
				JOINT ltoe
				{
					OFFSET 0.041054 -0.060286 0.122042
					CHANNELS 3 Zrotation Yrotation Xrotation
					End Site
					{
						OFFSET 0.000000 0.000000 0.000000
					}
				}
			}
		}
	}
	JOINT rhip
	{
		OFFSET -0.060310 -0.090513 -0.013543
		CHANNELS 3 Zrotation Yrotation Xrotation
		JOINT rknee
		{
			OFFSET -0.043257 -0.383688 -0.004843
			CHANNELS 3 Zrotation Yrotation Xrotation
			JOINT rankle
			{
				OFFSET 0.019056 -0.420046 -0.034562
				CHANNELS 3 Zrotation Yrotation Xrotation
				JOINT rtoe
				{
					OFFSET -0.034840 -0.062106 0.130323
					CHANNELS 3 Zrotation Yrotation Xrotation
					End Site
					{
						OFFSET 0.000000 0.000000 0.000000
					}
				}
			}
		}
	}
	JOINT lowerback
	{
		OFFSET 0.004439 0.124404 -0.038385
		CHANNELS 3 Zrotation Yrotation Xrotation
		JOINT upperback
		{
			OFFSET 0.004488 0.137956 0.026820
			CHANNELS 3 Zrotation Yrotation Xrotation
			JOINT chest
			{
				OFFSET -0.002265 0.056032 0.002855
				CHANNELS 3 Zrotation Yrotation Xrotation
				JOINT lowerneck
				{
					OFFSET -0.013390 0.211636 -0.033468
					CHANNELS 3 Zrotation Yrotation Xrotation
					JOINT upperneck
					{
						OFFSET 0.010113 0.088937 0.050410
						CHANNELS 3 Zrotation Yrotation Xrotation
						End Site
						{
							OFFSET 0.000000 0.000000 0.000000
						}
					}
				}
				JOINT lclavicle
				{
					OFFSET 0.071702 0.114000 -0.018898
					CHANNELS 3 Zrotation Yrotation Xrotation
					JOINT lshoulder
					{
						OFFSET 0.122921 0.045205 -0.019046
						CHANNELS 3 Zrotation Yrotation Xrotation
						JOINT lelbow
						{
							OFFSET 0.255332 -0.015649 -0.022946
							CHANNELS 3 Zrotation Yrotation Xrotation
							JOINT lwrist
							{
								OFFSET 0.265709 0.012698 -0.007375
								CHANNELS 3 Zrotation Yrotation Xrotation
								End Site
								{
									OFFSET 0.000000 0.000000 0.000000
								}
							}
						}
					}
				}
				JOINT rclavicle
				{
					OFFSET -0.082954 0.112472 -0.023707
					CHANNELS 3 Zrotation Yrotation Xrotation
					JOINT rshoulder
					{
						OFFSET -0.113228 0.046853 -0.008472
						CHANNELS 3 Zrotation Yrotation Xrotation
						JOINT relbow
						{
							OFFSET -0.260127 -0.014369 -0.031269
							CHANNELS 3 Zrotation Yrotation Xrotation
							JOINT rwrist
							{
								OFFSET -0.269108 0.006794 -0.006027
								CHANNELS 3 Zrotation Yrotation Xrotation
								End Site
								{
									OFFSET 0.000000 0.000000 0.000000
								}
							}
						}
					}
				}
			}
		}
	}
}
MOTION
Frames: 11
Frame Time: 0.033333
0.070498 -1.631544 0.918231 -82.745709 6.860416 92.466118 21.751606 11.426010 -25.380552 -10.039392 5.304016 39.150914 -2.680343 -1.909865 -20.587605 0.000000 -0.000000 0.000000 -4.986403 -9.762282 -26.917752 3.282418 -16.471020 49.705097 -2.858047 -4.250383 -24.191103 0.000000 -0.000000 0.000000 -9.716004 6.159976 30.055492 4.281601 -4.639822 6.182858 5.083824 -0.687840 -4.971452 4.404577 10.270571 -16.300209 13.280986 -7.745611 -13.516526 -20.355291 -6.479180 3.471682 -42.781410 -0.626912 5.005626 -1.141951 -48.333554 17.785977 -0.921628 -10.364364 -15.920624 29.859272 9.410032 4.883258 58.476179 10.141176 4.295775 -21.490394 44.125816 -15.729769 17.189099 7.661622 -19.185154 
0.082990 -1.618229 0.888361 -81.182621 7.741061 95.413504 24.249171 13.187383 -33.695346 -11.081167 7.818972 46.126125 -1.807789 -3.171307 -20.963561 0.000000 -0.000000 0.000000 -7.332884 -10.934465 -34.368511 0.815106 -19.562038 57.483517 -3.475775 -6.054989 -24.882949 0.000000 -0.000000 0.000000 -9.995471 7.558493 33.662447 4.615485 -4.546653 4.322211 5.543617 -0.879107 -4.846013 4.424908 9.767445 -20.359121 14.508254 -9.302331 -16.249009 -20.677861 -8.464121 3.086506 -39.519965 -3.497921 2.036772 5.114172 -47.427148 7.570161 2.169270 -9.144347 -17.240996 30.116823 9.948191 5.050256 56.031681 9.775795 3.015767 -31.000853 47.902955 -25.255544 11.123887 9.560665 -23.656707 
0.091197 -1.603354 0.857017 -79.908994 9.000870 96.716506 26.517337 15.796829 -40.106556 -11.333907 8.668001 53.298879 -1.918916 -4.266409 -22.353303 0.000000 -0.000000 0.000000 -10.134216 -12.989753 -38.258666 -2.109196 -20.038065 62.202248 -3.742340 -7.138913 -23.992758 0.000000 -0.000000 0.000000 -9.614341 9.189432 37.674334 4.623912 -4.043506 4.121898 5.917835 -0.708958 -5.767614 5.239166 7.231532 -22.687417 15.936753 -10.224679 -18.830108 -22.275710 -10.401185 2.973386 -34.338287 -6.670368 -2.067490 12.766736 -49.618758 -2.966529 2.597835 -8.237889 -17.517439 30.481019 10.908806 5.250103 52.285564 9.531221 -0.107730 -40.108021 47.656344 -36.255043 5.961413 10.034308 -25.723140 
0.096151 -1.583961 0.816476 -79.062676 9.536871 97.234260 29.376634 20.780120 -45.753784 -13.524846 10.340735 61.068770 -3.111748 -7.770827 -23.180818 0.000000 -0.000000 0.000000 -15.270853 -15.927072 -40.191385 -2.343445 -15.903983 63.243667 -2.977163 -6.978830 -22.439172 0.000000 -0.000000 0.000000 -9.685940 11.659917 41.949168 4.136852 -3.567393 4.971853 5.688916 -0.176857 -6.756190 6.152351 4.213253 -24.190915 18.919517 -12.273229 -21.635340 -23.060164 -12.866233 1.606107 -24.840921 -10.703218 -5.654043 20.010637 -56.751690 -10.929856 13.063728 -4.297176 -18.951658 30.895279 11.760393 5.438874 46.910895 8.660222 -4.711538 -46.581000 44.602252 -47.442602 -8.296843 8.683999 -29.286821 
0.097463 -1.572801 0.795701 -77.775896 8.792850 96.580012 29.346342 21.231260 -48.477411 -13.508107 10.486498 65.083720 -3.382447 -8.060107 -23.651700 0.000000 -0.000000 0.000000 -19.830897 -19.044953 -38.833594 -3.169935 -13.333878 62.576607 -1.375511 -6.978550 -21.663875 0.000000 -0.000000 0.000000 -8.745525 13.265145 46.197544 3.401709 -4.375035 4.478870 5.732958 -0.488576 -6.983549 6.548882 2.155730 -23.453454 20.110355 -13.305450 -23.102272 -22.207715 -14.774759 -0.095070 -17.656801 -13.522595 -7.751142 21.724928 -60.905383 -11.956126 15.859478 -6.020812 -18.013382 29.933970 11.988714 4.660478 44.016203 6.302084 -6.649623 -47.572785 42.509852 -53.404520 -15.405287 8.372549 -33.538753 
0.096434 -1.552610 0.768333 -76.565954 8.457893 96.419949 29.968713 22.636602 -52.119859 -14.132198 9.738719 69.220678 -4.251259 -8.248309 -23.394010 0.000000 -0.000000 0.000000 -24.746986 -22.290182 -37.560062 -5.065879 -10.837420 61.389485 -0.507201 -8.997939 -20.369493 0.000000 -0.000000 0.000000 -7.865049 14.706213 49.444012 3.126470 -5.071884 3.552687 5.792796 -0.889232 -6.075179 5.153363 1.179750 -21.072105 20.281157 -12.743498 -23.839597 -19.500239 -17.008991 -1.687824 -8.443858 -16.188221 -10.333607 28.129585 -66.106501 -17.033199 23.288337 -6.569192 -15.053512 29.028785 11.654570 4.088149 39.380738 1.820050 -8.313429 -47.450695 41.017485 -57.650625 -24.249008 7.076087 -35.153282 
0.093432 -1.525935 0.744982 -76.185613 8.617573 96.186358 31.586058 24.020774 -54.203940 -14.958970 8.365831 71.554568 -6.219813 -8.181598 -23.508770 0.000000 -0.000000 0.000000 -28.549345 -23.731684 -36.737195 -5.840002 -9.244959 61.024517 1.875695 -9.916481 -20.069329 0.000000 -0.000000 0.000000 -7.934613 15.632613 51.401946 3.737976 -5.729226 2.852390 6.146227 -1.271593 -5.205991 4.008956 2.508093 -18.642951 19.839554 -11.666448 -24.400980 -15.996391 -17.910981 -3.084982 -0.383796 -16.923700 -13.627217 39.927401 -68.819727 -27.283807 29.486031 -7.292632 -14.869812 27.923426 10.653758 2.534305 35.529762 -0.794333 -10.430782 -46.499832 38.909741 -58.022708 -27.024809 7.537474 -34.166897 
0.088868 -1.495125 0.727892 -76.549323 8.646786 95.484330 33.524504 25.520269 -54.597779 -15.658092 6.603263 72.520410 -8.315045 -7.972141 -22.416651 0.000000 -0.000000 0.000000 -30.827615 -25.060307 -36.806816 -5.384654 -7.919716 62.265828 2.390362 -10.140516 -19.976074 0.000000 -0.000000 0.000000 -7.713478 15.317497 53.244010 3.706424 -6.507430 2.868064 6.810076 -1.564205 -5.647040 2.701432 3.425622 -16.306627 20.416030 -10.147307 -25.402966 -15.084223 -19.488776 -2.832721 7.779182 -13.551142 -17.449153 52.524737 -68.327034 -39.774558 28.600425 -6.984495 -11.897531 26.580700 10.693035 2.800288 31.794974 -3.367962 -13.396061 -45.354406 37.708897 -59.373069 -28.146004 6.664574 -35.250465 
0.084453 -1.458684 0.716794 -77.707640 8.305370 95.131007 35.644450 26.298726 -53.532952 -15.907855 4.346571 71.554982 -11.184986 -7.498176 -21.091232 0.000000 -0.000000 0.000000 -31.618711 -26.692822 -39.000370 -5.991824 -8.956575 65.732890 2.191368 -11.617900 -20.650547 0.000000 -0.000000 0.000000 -7.608140 14.311506 53.664325 4.051002 -6.701880 2.310847 7.506736 -2.574131 -4.773736 1.216461 4.659238 -15.845885 18.745295 -7.887899 -25.817197 -12.782550 -20.155135 -0.159160 7.466387 -8.262055 -22.781477 63.079209 -64.219677 -49.115567 29.084640 -6.995503 -13.104123 23.660666 10.681020 2.115919 28.245145 -4.577345 -16.543261 -42.752979 37.096994 -57.593318 -28.003630 6.583959 -34.851451 
0.076094 -1.404846 0.711287 -80.843478 6.989004 93.812090 39.351077 26.938852 -47.592670 -15.351410 2.197643 67.071777 -14.688460 -7.032530 -18.074677 0.000000 -0.000000 0.000000 -30.479356 -28.638946 -42.529250 -6.873439 -13.024927 70.660837 1.554477 -12.581194 -20.871856 0.000000 -0.000000 0.000000 -7.749252 11.368119 53.013494 2.979457 -5.903403 3.429952 7.572314 -2.966018 -5.126729 0.566697 4.752646 -14.192877 17.599431 -3.711919 -24.976251 -13.280421 -17.048222 -0.075162 3.913709 -6.851899 -22.068272 66.973806 -58.954987 -56.773753 29.901118 -4.781728 -16.513884 19.818314 10.157526 0.734178 22.659527 -3.254491 -19.138978 -40.584422 36.371110 -58.515023 -25.336232 8.183221 -33.988217 
0.068140 -1.355542 0.713799 -84.665084 5.205097 93.203205 41.896877 27.026056 -40.698307 -13.172926 0.598693 61.293905 -17.537440 -5.927213 -15.285873 0.000000 -0.000000 0.000000 -28.215920 -28.760807 -46.912045 -5.933888 -12.784403 75.741224 1.216050 -9.283728 -23.637946 0.000000 -0.000000 0.000000 -7.562080 7.992651 50.748578 1.786227 -4.422304 4.073011 6.307294 -3.020013 -4.246506 -0.536566 6.345861 -12.941302 13.195348 -0.530859 -23.699123 -14.061251 -12.895053 -0.830314 -4.490284 -5.222117 -20.339683 68.688610 -58.742473 -58.188964 29.109210 -4.118477 -19.769205 17.353585 9.504654 -1.368779 16.180361 -0.353592 -21.757994 -40.169301 37.424783 -60.043732 -23.850273 8.613938 -31.823004 
